<svg xmlns="http://www.w3.org/2000/svg" viewBox="0 0 35.9 47.4"><defs><style>.cls-1{fill:#464372;}.cls-2{fill:#fff;}</style></defs><g id="Layer_2" data-name="Layer 2"><g id="Layer_1-2" data-name="Layer 1"><path class="cls-1" d="M17.2,9.5c0-6.3,3.1-9.5,9.3-9.5s9.4,3.2,9.4,9.5v6.3H28.4V9.5q0-2.1-1.8-2.1h-.1q-1.8,0-1.8,2.1v3.7c0,1.6,1.7,3.7,5.3,6.2s5.9,6.2,5.9,10.2v5.2c0,6.4-3.1,9.5-9.3,9.5s-9.4-3.1-9.4-9.5V28.5h7.5v6.3c0,1.4.6,2.1,1.9,2.1s1.8-.7,1.8-2.1V30.1c0-1.7-1.7-3.9-5.3-6.4s-5.9-6.3-5.9-10.3Z"/><path class="cls-2" d="M18.7,13.4c0,3.5,1.7,6.6,5.3,9.1s5.9,5.4,5.9,7.6v4.7q0,3.6-3.3,3.6c-2.3,0-3.4-1.2-3.4-3.6V30H18.7v4.8c0,5.4,2.6,8,7.9,8s7.8-2.6,7.8-8V29.6c0-3.5-1.8-6.5-5.3-9s-5.9-5.3-5.9-7.4V9.5q0-3.6,3.3-3.6h.1q3.3,0,3.3,3.6v4.8h4.5V9.5c0-5.4-2.6-8-7.9-8s-7.8,2.6-7.8,8Z"/><path class="cls-1" d="M0,4.4H10c5.8,0,8.7,3.1,8.7,9.4v6.3c-.2,2.7-1.1,4.7-2.9,5.8,1.8,1,2.8,2.9,2.9,5.7v6.3c0,6.3-2.9,9.4-8.7,9.4H0Z"/><path class="cls-2" d="M1.5,45.9H10c4.8,0,7.2-2.7,7.2-8V31.6c0-2.4-1.4-4.3-4.1-5.7,2.7-1.5,4.1-3.4,4.1-5.8V13.8c0-5.3-2.4-7.9-7.2-7.9H1.5Z"/><path class="cls-2" d="M9.4,10.3c2.2,0,3.3,1.2,3.3,3.5v6.3a3.1,3.1,0,0,1-2.1,3.3,5.3,5.3,0,0,1-2,.2H6V10.3Z"/><path class="cls-2" d="M8.6,28.1l2,.2a3.3,3.3,0,0,1,2.1,3.3v6.3q0,3.6-3.3,3.6H6V28.1Z"/><path class="cls-1" d="M7.5,11.8V22.2H8.6A3.3,3.3,0,0,0,10,22a1.8,1.8,0,0,0,1.2-1.9V13.8c0-1.3-.6-2-1.8-2Z"/><path class="cls-1" d="M7.5,29.6V40H9.4q1.8,0,1.8-2.1V31.6A1.9,1.9,0,0,0,10,29.7H7.5Z"/></g></g></svg>