<svg id="Layer_1" data-name="Layer 1" xmlns="http://www.w3.org/2000/svg" xmlns:xlink="http://www.w3.org/1999/xlink" viewBox="0 0 640.3 289.65"><defs><style>.cls-1{fill:#98b2d8;}.cls-2{fill:#b1c3e8;}.cls-3{fill:#b7cae5;}.cls-4{fill:#97b3d1;}.cls-5{fill:#ced9ea;}.cls-6{fill:#b6c5dd;}.cls-7{fill:#5d7ca0;}.cls-8{fill:#799cbf;}.cls-9{fill:#f2f4f9;}.cls-10{fill:#c1cfe5;}.cls-11{fill:url(#linear-gradient);}.cls-12,.cls-15{fill:#1f395e;}.cls-12{opacity:0.22;}.cls-12,.cls-22,.cls-28,.cls-33,.cls-34,.cls-35{isolation:isolate;}.cls-13{fill:url(#linear-gradient-2);}.cls-14{fill:url(#linear-gradient-3);}.cls-16{fill:#fff;}.cls-17{fill:url(#linear-gradient-4);}.cls-18{fill:#3150bc;}.cls-19{fill:#feb19e;}.cls-20{fill:#ff856a;}.cls-21{fill:url(#linear-gradient-5);}.cls-22,.cls-23,.cls-33{fill:#9abced;}.cls-22{opacity:0.6;}.cls-24{fill:#c1c8d3;}.cls-25{fill:url(#linear-gradient-6);}.cls-26{fill:url(#linear-gradient-7);}.cls-27{fill:#4f7eb7;}.cls-28,.cls-32{fill:#7ca6d8;}.cls-28{opacity:0.71;}.cls-29{fill:#ea9ba1;}.cls-30,.cls-31,.cls-33{opacity:0.5;}.cls-31,.cls-35{fill:#6a85d3;}.cls-34{opacity:0.44;}.cls-35{font-size:10px;font-family:Roboto-Medium, Roboto;font-weight:500;}</style><linearGradient id="linear-gradient" x1="-189.37" y1="401.51" x2="-189.37" y2="402.35" gradientTransform="matrix(169.56, 0, 0, -115.09, 32427.36, 46482.57)" gradientUnits="userSpaceOnUse"><stop offset="0" stop-color="#1f3a65"/><stop offset="1" stop-color="#294a7a"/></linearGradient><linearGradient id="linear-gradient-2" x1="-186.85" y1="399.85" x2="-186.85" y2="400.72" gradientTransform="matrix(52.3, 0, 0, -29.82, 10031.02, 12202.4)" xlink:href="#linear-gradient"/><linearGradient id="linear-gradient-3" x1="-187.62" y1="400.09" x2="-187.62" y2="400.87" gradientTransform="matrix(66.43, 0, 0, -33.48, 12832.27, 13674.46)" xlink:href="#linear-gradient"/><linearGradient id="linear-gradient-4" x1="-188.19" y1="400.86" x2="-188.56" y2="401.87" gradientTransform="matrix(90.64, 0, 0, -53.56, 17394.7, 21739.52)" gradientUnits="userSpaceOnUse"><stop offset="0" stop-color="#3855e1"/><stop offset="1" stop-color="#5c7ef7"/></linearGradient><linearGradient id="linear-gradient-5" x1="-187.43" y1="401.05" x2="-187.44" y2="401.77" gradientTransform="matrix(62.28, 0, 0, -58.1, 11983.21, 23438.75)" gradientUnits="userSpaceOnUse"><stop offset="0" stop-color="#3f2323"/><stop offset="1" stop-color="#5e3434"/></linearGradient><linearGradient id="linear-gradient-6" x1="-181.88" y1="400.05" x2="-180.88" y2="400.05" gradientTransform="matrix(20.93, 0, 0, -25.76, 4252.93, 10573.51)" xlink:href="#linear-gradient"/><linearGradient id="linear-gradient-7" x1="-184.84" y1="401.9" x2="-185.56" y2="400.61" gradientTransform="matrix(36.63, 0, 0, -40.76, 7246.8, 16575.36)" gradientUnits="userSpaceOnUse"><stop offset="0" stop-color="#e2e8f7"/><stop offset="1" stop-color="#fff"/></linearGradient></defs><g id="Group_70" data-name="Group 70"><g id="Group_39" data-name="Group 39"><g id="Group_37" data-name="Group 37"><g id="Group_36" data-name="Group 36"><path id="Path_220" data-name="Path 220" class="cls-1" d="M116.58,179.3l-10,10.26-4.16-6.1-1.38-2c-4.43,1.11-11-7.56-13.59-12.18s7.86-11.79,7.86-11.79c-1.71-5.12-8.57-8.34-8.76-9.75s1.51-2.92,7.74,0S106,161,106,161c1.11-3-3.82-11.16-2.92-12.08s5.73.21,9.45,8.06,1.52,17.11,1.52,17.11l.05.08Z"/><path id="Path_221" data-name="Path 221" class="cls-2" d="M95,156.55s7.39,8.46,6.6,11.78-4.52-.53-4.52-.53,3.42,3.95,2.31,5.26-5.23-2-5.23-2,4.93,6.14,0,5.23S83,166.07,87.78,165.14c0,0-.57-6.77,3.75-4.46C91.53,160.68,89.59,155,95,156.55Z"/></g><path id="Path_222" data-name="Path 222" class="cls-3" d="M184.83,279s8.33-24.31,3.95-48.29a.45.45,0,0,1,0-.16,1.06,1.06,0,0,0,0-.19c-.12-.63-.25-1.26-.38-1.89a100.81,100.81,0,0,1-11.5,8.41c-8,5-18.68,10.05-26.88,7.7-15-4.3-37-33.54-47.24-56.63A26.71,26.71,0,0,1,118,178s20.4,27.18,38.39,33.62a132.64,132.64,0,0,0,17.16-28.45c4.8-10.79,12-17.62,21.08-21.29a49.09,49.09,0,0,1,17.18-3.38l15.77-7.36a57.45,57.45,0,0,1,6.54.53c7.39,1,19.67,3.67,29.61,11.24,15.3,11.66,37.31,116.15,37.31,116.15Z"/><path id="Path_223" data-name="Path 223" class="cls-4" d="M188.75,230.59c-.13-.69-.27-1.38-.42-2.08a100.81,100.81,0,0,1-11.5,8.41l4.66-39.81C186.22,215.34,188.49,229,188.75,230.59Z"/><path id="Path_224" data-name="Path 224" class="cls-5" d="M234.13,151.65c-2.44,15.46-17.91,29.75-29.09,29.55-9-.16-10.3-13-10.4-19.34a49.32,49.32,0,0,1,17.18-3.38l15.77-7.36A62.2,62.2,0,0,1,234.13,151.65Z"/><path id="Path_225" data-name="Path 225" class="cls-4" d="M207.37,263.24s35.5-36.94,37-75.79l10.47,32.74-4,34.09Z"/><path id="Path_226" data-name="Path 226" class="cls-1" d="M206.34,279H166.59a8.13,8.13,0,0,1,6.24-7.24c6.14-1.81,10.06-9.46,28.48-8.46Z"/><path id="Path_227" data-name="Path 227" class="cls-6" d="M247,242.5s-18.73,10.77-48.22,18.42c0,0-4.1,9.86,3.08,18.11h57.06Z"/></g><g id="Group_38" data-name="Group 38"><path id="Path_228" data-name="Path 228" class="cls-7" d="M177.28,129.59s-8.48-11.7-7.44-19.58,8.34-6,8.34-6-.34-19.14,17.38-14.25c0,0-.39-5.84,3.48-5.69s9.94,9,9.94,9,1.51-6.59,4.13-5,3.43,8.37,8.9,11.64,8.86,7.52,4.56,20.8-1.07,14.23-2.61,21c-1.46,6.47-2.62,10.41-6.64,10.78s-19.41-15.87-19.41-15.87Z"/><path id="Path_229" data-name="Path 229" class="cls-1" d="M227.59,151.12s-9.87,23.95-20.24,22.14c-5.16-.89-6.3-4-6.35-7.68-.05-4.75,1.8-10.32-1-12.65l12.43-17.67,2.74-3.9A64.26,64.26,0,0,0,227.59,151.12Z"/><path id="Path_230" data-name="Path 230" class="cls-8" d="M201,165.58c-.05-4.75,1.8-10.32-1-12.65l12.43-17.67c1.06,1.24,1.82,3.45,2.13,6.91C216.2,160.41,206.56,164.65,201,165.58Z"/><path id="Path_231" data-name="Path 231" class="cls-1" d="M176.07,120.28s3.36,30.85,16,37.79c10.93,6,24.22-12.22,23.95-21.24,0,0,4.77-3.64,4-9.54s-7-3.94-7.77,5.56c0,0-5.07-.36-6-12.23-3.18,2.63-6.61,1.82-10.22-1.38,0,0-1.79,6.6-11-1.12C185,118.12,181.48,122.84,176.07,120.28Z"/></g></g><g id="Group_45" data-name="Group 45"><g id="Group_40" data-name="Group 40"><path id="Path_232" data-name="Path 232" class="cls-7" d="M472.94,239.78s16.25,27.11,21.88,40.26H437.53a234.74,234.74,0,0,0-9-31.07Z"/><path id="Path_233" data-name="Path 233" class="cls-8" d="M450.6,245.82c-3.14,10.39-7.92,19.26-15,26l1.94,8.22-69.32-.86,7.71-47.45Z"/></g><g id="Group_41" data-name="Group 41"><path id="Path_234" data-name="Path 234" class="cls-8" d="M559.35,97.89s2.3-14.37,6.86-19.47,17-12.64,18.52-10-11,11.1-11,11.1,5.63-1.34,10.46,7-10.73,14.76-10.73,14.76l-3.09,7L558,100.5Z"/><path id="Path_235" data-name="Path 235" class="cls-1" d="M575.31,79.84s-7,7.07-5.94,9.09,4.85-1.16,4.85-1.16-3.13,4.77-.7,6,6.18-2.89,6.18-2.89-3.13,4.33-1.33,5.13,11.42-6,9.7-7.58-2.66-.29-2.66-.29,2-3.4,0-4.48a2.32,2.32,0,0,0-3.19.77l-.1.17s1.65-2.6.32-3.61-4.15.29-4.15.29S579.22,77,575.31,79.84Z"/><path id="Path_236" data-name="Path 236" class="cls-1" d="M568.85,79.66c-2.11-.6-6.41,3.8-6.41,3.8-1.69,2.17-2,6.5-2.1,8.5-.21,5.57-2.32,8.54-2.32,8.54l6.26,4c4.85-6.25,3.27-14.26,2.48-17.09C569.13,83.83,570.11,80,568.85,79.66Z"/></g><g id="Group_42" data-name="Group 42"><path id="Path_237" data-name="Path 237" class="cls-3" d="M572.91,109.76S552,165.5,518.71,170.45a171.75,171.75,0,0,1-34,2c-9.37-.48-14-1.9-14.31-2l0,0s-9.13,17-3.22,41.44,8.05,29.51,8.05,29.51-44.84,33-81.32,3L361,193.16l-10.31-16s9.47-31.09,36.17-51.3v0a81.69,81.69,0,0,1,38-16,96.45,96.45,0,0,1,26-.24s7.25,2,19,6.36c6.34,2.32,14,5.3,22.55,9,24.43,10.46,31.15,13.59,31.15,13.59s26-25.67,32.73-41.24C556.27,97.28,569.69,98.63,572.91,109.76Z"/><path id="Path_238" data-name="Path 238" class="cls-4" d="M405,135.21c-.12,12.49-2.79,24.6-4,34L421.68,165l32.19,31.82s4.08,9.33-4.23,10.94c-6.5,1.26-36.9,5.49-36.9,5.49-7,9.53-10.17,24.12-13.66,38.27l-30.87-53.62Z"/><path id="Path_239" data-name="Path 239" class="cls-5" d="M450.8,138.21c-14.41-3.66-22-16.62-26-28.37a96.45,96.45,0,0,1,26-.24s7.25,2,19,6.36C471.22,126.24,470.72,143.25,450.8,138.21Z"/><path id="Path_240" data-name="Path 240" class="cls-4" d="M488.64,149.61a157.9,157.9,0,0,0-3.91,22.85c-9.37-.48-14-1.9-14.32-2v0S478.58,156.45,488.64,149.61Z"/></g><g id="Group_43" data-name="Group 43"><rect id="Rectangle_72" data-name="Rectangle 72" class="cls-9" x="410.35" y="145.88" width="40.23" height="59.2" rx="1.95" transform="translate(-20.78 63.79) rotate(-8.28)"/><path id="Path_241" data-name="Path 241" class="cls-1" d="M426.51,167.32l5.5-2.14s5.24-14.5,11.75-5.37c0,0,4.5-2.69,4.36-4.16s-.2-3.62-.2-3.62S457,154,455,166.7s-9.82,11.09-17.47,11.22L428,181.68Z"/><path id="Path_242" data-name="Path 242" class="cls-10" d="M430.06,185s-42.86,28.37-61.38,14.68a75,75,0,0,1-7.68-6.55l-10.31-16s9.47-31.09,36.17-51.3v0c8.85-4,18.1-2.53,18.58,5.67,1.13,19.53-15.58,31.54-17.64,40.4l38.42-7.78S432.48,170.74,430.06,185Z"/></g><g id="Group_44" data-name="Group 44"><path id="Path_243" data-name="Path 243" class="cls-7" d="M480.45,79.88s6.13-13.08,3.62-20.63-9.32-4.35-9.32-4.35S471.48,36,455,44.17c0,0-.72-5.81-4.49-4.94S442.45,50,442.45,50s-2.72-6.19-5-4.17-1.79,8.86-6.55,13.11-7.29,9-.57,21.28,3.72,13.77,6.51,20.18c2.65,6.09,4.54,9.74,8.56,9.34s16.08-19.24,16.08-19.24Z"/><path id="Path_244" data-name="Path 244" class="cls-1" d="M435.09,110.48s9.47,23.36,24.37,19.53c5.06-1.3,5.1-6.74,4.46-10.32-.85-4.68-3.72-9.8-1.4-12.62L447,92.06l-3.42-3.32A64.48,64.48,0,0,1,435.09,110.48Z"/><path id="Path_245" data-name="Path 245" class="cls-8" d="M463.92,119.69c-.85-4.67-3.72-9.8-1.4-12.62L447,92.06c-.81,1.42-1.14,3.73-.78,7.19C448,117.47,458.28,119.82,463.92,119.69Z"/><path id="Path_246" data-name="Path 246" class="cls-1" d="M479.88,70.51s2.5,30.93-8.55,40.11c-9.61,8-26.09-7.44-27.53-16.36,0,0-5.36-2.68-5.69-8.62s6.16-5.19,8.68,4c0,0,4.91-1.3,3.6-13.14,3.62,2,6.84.55,9.78-3.28,0,0,3,6.15,10.59-3.16C470.76,70.06,475.06,74,479.88,70.51Z"/></g></g><g id="Group_51" data-name="Group 51"><g id="Group_46" data-name="Group 46"><path id="Path_247" data-name="Path 247" class="cls-11" d="M401.25,261.94v0a21.54,21.54,0,0,1-2,5.2C391.49,281.38,357.81,279,357.81,279H280.92c-31.82,0-44.58-.79-47.62-10.72a12.64,12.64,0,0,1-.42-1.69c-2.16-11.55,8.58-49.12,28.44-74.88,10.16-13.17,20.66-20.11,30-23.74a60.63,60.63,0,0,1,22.37-3.91c9.76,0,17.63.73,24.32,2.29,17.93,4.2,27.32,14.35,41.4,32.33C396.63,220.7,405.1,246.52,401.25,261.94Z"/><path id="Path_248" data-name="Path 248" class="cls-12" d="M266,252.82c8.35-13.12,11-31.33,13.29-49.8l7.25,37.57h62.8L360.9,203c-.28,17.56,2.13,34.78,10.46,51.26C371.36,254.28,330.3,300.75,266,252.82Z"/><path id="Path_249" data-name="Path 249" class="cls-13" d="M285.09,279h-4.17c-31.82,0-44.57-.79-47.62-10.72-1.66-7.81.45-16,10-18.47,14.91-3.83,40.87,11.27,40.87,11.27Z"/><path id="Path_250" data-name="Path 250" class="cls-14" d="M401.25,261.94s0,0,0,0a21.54,21.54,0,0,1-2,5.2C391.49,281.38,357.81,279,357.81,279H335l2.9-19.32s40.45-18.73,54.94-12.88C399.92,249.69,402.09,255.61,401.25,261.94Z"/><path id="Path_251" data-name="Path 251" class="cls-15" d="M338,166.39c-.68,9-4.41,25.49-22.61,25.49-19.18,0-23.24-16.22-24.07-23.87a60.54,60.54,0,0,1,22.36-3.91C323.46,164.1,331.34,164.83,338,166.39Z"/></g><g id="Group_47" data-name="Group 47"><path id="Path_252" data-name="Path 252" class="cls-16" d="M354.59,279H280.92a3.22,3.22,0,0,1-3.22-3.22h0a3.22,3.22,0,0,1,3.22-3.22h73.67a3.22,3.22,0,0,1,3.22,3.22h0a3.22,3.22,0,0,1-3.22,3.22Z"/><path id="Path_253" data-name="Path 253" class="cls-17" d="M363.51,223.65l-.27,1.67v0L355.6,272.6H280.52l-7.56-49a4,4,0,0,1,3.33-4.53,5.87,5.87,0,0,1,.59-.05H359.6a4,4,0,0,1,4,4A4.48,4.48,0,0,1,363.51,223.65Z"/><path id="Path_254" data-name="Path 254" class="cls-18" d="M363.24,225.34,355.6,272.6H280.92L306.23,270A68.09,68.09,0,0,0,363.24,225.34Z"/></g><g id="Group_50" data-name="Group 50"><g id="Group_48" data-name="Group 48"><path id="Path_255" data-name="Path 255" class="cls-19" d="M315.11,185h-.5a17.52,17.52,0,0,1-7.25-1.47,13.06,13.06,0,0,1-7.49-12.25c0-.54,0-1,0-1.57,0-4.29-.26-7.87-.26-7.87V160l27.05-1.21a63.77,63.77,0,0,0,1.08,10.13.61.61,0,0,1,0,.13,13.4,13.4,0,0,1-10.52,15.78A13.13,13.13,0,0,1,315.11,185Z"/><path id="Path_256" data-name="Path 256" class="cls-20" d="M327.76,168.87c-11.27,13.23-22.85,5.51-27.87.88,0-4.29-.26-7.87-.26-7.87V160l27.05-1.21A63.77,63.77,0,0,0,327.76,168.87Z"/></g><g id="Group_49" data-name="Group 49"><path id="Path_257" data-name="Path 257" class="cls-19" d="M291.35,146.8s8.39,23.64,22.38,23.64S333.53,145,333.53,145V122.84H290.28Z"/><path id="Path_258" data-name="Path 258" class="cls-19" d="M286.85,133.46s-4.12.75-3.41,5.48,5,10.47,8.48,7.45Z"/><path id="Path_259" data-name="Path 259" class="cls-19" d="M336.8,131.48s4.18.19,4.13,5-3.53,11.05-7.4,8.54Z"/><path id="Path_260" data-name="Path 260" class="cls-21" d="M336.8,131.48a111.08,111.08,0,0,1-3.27,13.5s-3.31-.67-4.38-9.39a11.81,11.81,0,0,1-11.66-5.37s-1.08,6.71-8,1.95c-4.61,3.76-10.05,4.15-16.24,1.61,0,0,1,8.79-1.91,13,0,0-1.07-3.48-4.5-13.34a3.33,3.33,0,0,0-2.41,1.39s-7.41-14.5-3.92-21.47,8.18-4.29,8.18-4.29-1.74-9.53,8.59-13,10.33-8.19,11.94-7.25,2.29,4.43,2.29,4.43,17.84-1.88,22.67,17.31c0,0,12.89.41,5.24,22C339.43,132.58,338.93,131.68,336.8,131.48Z"/></g></g></g><g id="Group_53" data-name="Group 53"><path id="Path_262" data-name="Path 262" class="cls-22" d="M267.84,151.58H200.4a4,4,0,0,0-4,4V195.8a4,4,0,0,0,4,4h46.52l12.13,10.76a1.19,1.19,0,0,0,1.92-1.28l-3.28-9.48h10.15a4,4,0,0,0,4-4V155.55A4,4,0,0,0,267.84,151.58Z"/><g id="Group_52" data-name="Group 52"><path id="Path_263" data-name="Path 263" class="cls-23" d="M221.33,162.35H205.79a1.06,1.06,0,0,1-1.06-1.06h0a1.05,1.05,0,0,1,1.06-1.06h15.54a1.05,1.05,0,0,1,1,1.06h0A1.06,1.06,0,0,1,221.33,162.35Z"/><path id="Path_264" data-name="Path 264" class="cls-23" d="M259.64,171.53h-45a1.06,1.06,0,0,1-1.06-1.06h0a1.05,1.05,0,0,1,1.06-1.06h45a1.05,1.05,0,0,1,1.05,1.06h0A1.06,1.06,0,0,1,259.64,171.53Z"/><path id="Path_265" data-name="Path 265" class="cls-23" d="M259.64,178.06H205.79a1.06,1.06,0,0,1-1.06-1.06h0a1.06,1.06,0,0,1,1.06-1.06h53.85a1.05,1.05,0,0,1,1.05,1.06h0A1.06,1.06,0,0,1,259.64,178.06Z"/><path id="Path_266" data-name="Path 266" class="cls-23" d="M259.64,184.59H205.79a1.05,1.05,0,0,1-1.06-1.06h0a1.06,1.06,0,0,1,1.06-1.06h53.85a1.06,1.06,0,0,1,1.05,1.06h0A1.05,1.05,0,0,1,259.64,184.59Z"/><path id="Path_267" data-name="Path 267" class="cls-23" d="M259.64,191.12H205.79a1.05,1.05,0,0,1-1.06-1.06h0a1.05,1.05,0,0,1,1.06-1.05h53.85a1,1,0,0,1,1.05,1.05h0A1.05,1.05,0,0,1,259.64,191.12Z"/></g></g><g id="Group_55" data-name="Group 55"><rect id="Rectangle_73" data-name="Rectangle 73" class="cls-24" x="75.57" y="279.03" width="493.01" height="10.47" rx="1.75"/><g id="Group_54" data-name="Group 54"><path id="Rectangle_74" data-name="Rectangle 74" class="cls-25" d="M445.73,253.22h20.93v18.12A7.64,7.64,0,0,1,459,279h-5.63a7.64,7.64,0,0,1-7.65-7.64h0V253.22Z"/><path id="Path_268" data-name="Path 268" class="cls-26" d="M452.37,253.22v-5.59A1.66,1.66,0,0,1,454,246h2.12a1.66,1.66,0,0,0,1.66-1.66h0V242.2a1.66,1.66,0,0,0-1.66-1.66h-6.8a8.45,8.45,0,0,1-8.45-8.45h0a8.45,8.45,0,0,1,8.45-8.46h9A1.66,1.66,0,0,0,460,222h0v-.75a8.76,8.76,0,0,1,8.75-8.76h0a8.76,8.76,0,0,1,8.76,8.76h0a9.46,9.46,0,0,1-9.46,9.46H452.22a1.66,1.66,0,0,0-1.66,1.66h0a1.66,1.66,0,0,0,1.66,1.66h8.66a5.78,5.78,0,0,1,5.78,5.78v3.63a5.78,5.78,0,0,1-5.78,5.78h0a1.66,1.66,0,0,0-1.66,1.66v2.37Z"/></g></g><g id="Group_69" data-name="Group 69"><g id="Group_59" data-name="Group 59"><rect id="Rectangle_75" data-name="Rectangle 75" class="cls-22" x="378.53" y="146.49" width="62.6" height="77.09" rx="3.82"/><path id="Path_269" data-name="Path 269" class="cls-27" d="M440.79,221h-55a4.64,4.64,0,0,1-4.63-4.63V147a4.64,4.64,0,0,1,4.63-4.63h55a4.63,4.63,0,0,1,4.63,4.63V216.4A4.63,4.63,0,0,1,440.79,221Zm-55-77.09a3,3,0,0,0-3,3V216.4a3,3,0,0,0,3,3h55a3,3,0,0,0,3-3V147a3,3,0,0,0-3-3Z"/><g id="Group_56" data-name="Group 56"><path id="Path_270" data-name="Path 270" class="cls-28" d="M400.13,171.16H387.92V156.53h12.21Zm-10.6-1.61h9v-11.4h-9Z"/><path id="Path_271" data-name="Path 271" class="cls-29" d="M397.06,166.62l-3.63-4.05,1.2-1.07,2.2,2.45a21.48,21.48,0,0,1,9-6.55l.61,1.49c-6.47,2.66-8.84,6.72-8.86,6.76Z"/><path id="Path_272" data-name="Path 272" class="cls-23" d="M431.28,162H412.33a1.2,1.2,0,0,1-1.2-1.2h0a1.2,1.2,0,0,1,1.2-1.2h18.95a1.2,1.2,0,0,1,1.2,1.2h0a1.2,1.2,0,0,1-1.2,1.2Z"/><path id="Path_273" data-name="Path 273" class="cls-23" d="M431.28,167.82H412.33a1.2,1.2,0,0,1-1.2-1.2h0a1.2,1.2,0,0,1,1.2-1.2h18.95a1.2,1.2,0,0,1,1.2,1.2h0a1.2,1.2,0,0,1-1.2,1.2Z"/></g><g id="Group_57" data-name="Group 57"><path id="Path_274" data-name="Path 274" class="cls-28" d="M400.13,193.57H387.92V178.94h12.21ZM389.53,192h9v-11.4h-9Z"/><path id="Path_275" data-name="Path 275" class="cls-29" d="M397.06,189,393.43,185l1.2-1.08,2.2,2.46a21.48,21.48,0,0,1,9-6.55l.61,1.48c-6.47,2.67-8.84,6.73-8.86,6.77Z"/><path id="Path_276" data-name="Path 276" class="cls-23" d="M431.28,184.42H412.33a1.2,1.2,0,0,1-1.2-1.2h0a1.2,1.2,0,0,1,1.2-1.2h18.95a1.2,1.2,0,0,1,1.2,1.2h0a1.2,1.2,0,0,1-1.2,1.2Z"/><path id="Path_277" data-name="Path 277" class="cls-23" d="M431.28,190.22H412.33a1.19,1.19,0,0,1-1.2-1.19h0a1.2,1.2,0,0,1,1.2-1.2h18.95a1.2,1.2,0,0,1,1.2,1.2h0a1.2,1.2,0,0,1-1.2,1.2Z"/></g><g id="Group_58" data-name="Group 58"><path id="Path_278" data-name="Path 278" class="cls-28" d="M400.13,216H387.92V201.35h12.21Zm-10.6-1.61h9V203h-9Z"/><path id="Path_279" data-name="Path 279" class="cls-29" d="M397.06,211.44l-3.63-4.05,1.2-1.08,2.2,2.46a21.48,21.48,0,0,1,9-6.55l.61,1.48c-6.47,2.67-8.84,6.73-8.86,6.77Z"/><path id="Path_280" data-name="Path 280" class="cls-23" d="M431.28,206.83H412.33a1.2,1.2,0,0,1-1.2-1.2h0a1.2,1.2,0,0,1,1.2-1.2h18.95a1.2,1.2,0,0,1,1.2,1.2h0a1.2,1.2,0,0,1-1.2,1.2Z"/><path id="Path_281" data-name="Path 281" class="cls-23" d="M431.28,212.63H412.33a1.19,1.19,0,0,1-1.2-1.19h0a1.2,1.2,0,0,1,1.2-1.2h18.95a1.2,1.2,0,0,1,1.2,1.2h0a1.2,1.2,0,0,1-1.2,1.2Z"/></g></g><g id="Group_62" data-name="Group 62"><rect id="Rectangle_76" data-name="Rectangle 76" class="cls-22" x="571.57" y="40.3" width="62.6" height="77.09" rx="3.82"/><path id="Path_282" data-name="Path 282" class="cls-27" d="M635.17,113.8H580.22a4.64,4.64,0,0,1-4.63-4.63V39.73a4.64,4.64,0,0,1,4.63-4.63h54.95a4.63,4.63,0,0,1,4.63,4.63v69.44A4.63,4.63,0,0,1,635.17,113.8ZM580.22,36.71a3,3,0,0,0-3,3v69.44a3,3,0,0,0,3,3h54.95a3,3,0,0,0,3-3V39.73a3,3,0,0,0-3-3Z"/><g id="Group_61" data-name="Group 61" class="cls-30"><g id="Group_60" data-name="Group 60"><path id="Path_284" data-name="Path 284" class="cls-23" d="M585.22,81a2.82,2.82,0,1,1-2.82-2.81h0A2.81,2.81,0,0,1,585.22,81Z"/><path id="Path_285" data-name="Path 285" class="cls-23" d="M585.22,93.5a2.82,2.82,0,1,1-2.82-2.81h0a2.81,2.81,0,0,1,2.82,2.81Z"/><path id="Path_286" data-name="Path 286" class="cls-23" d="M622,83.84H599.45A2.82,2.82,0,0,1,596.63,81h0a2.81,2.81,0,0,1,2.82-2.81H622A2.81,2.81,0,0,1,624.81,81h0A2.82,2.82,0,0,1,622,83.84Z"/><path id="Path_287" data-name="Path 287" class="cls-23" d="M622,96.32H599.45a2.82,2.82,0,0,1-2.82-2.82h0a2.81,2.81,0,0,1,2.82-2.81H622a2.81,2.81,0,0,1,2.82,2.81h0A2.82,2.82,0,0,1,622,96.32Z"/><path id="Path_288" data-name="Path 288" class="cls-23" d="M585.22,106.18a2.82,2.82,0,1,1-2.82-2.81h0a2.81,2.81,0,0,1,2.82,2.81Z"/><path id="Path_289" data-name="Path 289" class="cls-23" d="M622,109H599.45a2.82,2.82,0,0,1-2.82-2.82h0a2.81,2.81,0,0,1,2.82-2.81H622a2.81,2.81,0,0,1,2.82,2.81h0A2.82,2.82,0,0,1,622,109Z"/></g><rect id="Rectangle_91" data-name="Rectangle 91" class="cls-31" x="581.5" y="49.5" width="48" height="14" rx="3"/></g></g><g id="Group_64" data-name="Group 64"><rect id="Rectangle_77" data-name="Rectangle 77" class="cls-22" x="101.58" y="4.79" width="62.6" height="89.97" rx="3.82"/><path id="Path_290" data-name="Path 290" class="cls-27" d="M156.87,92.08H101.92a4.63,4.63,0,0,1-4.63-4.63V5.13A4.63,4.63,0,0,1,101.92.5h55a4.64,4.64,0,0,1,4.63,4.63V87.45A4.64,4.64,0,0,1,156.87,92.08Zm-54.95-90a3,3,0,0,0-3,3V87.45a3,3,0,0,0,3,3h55a3,3,0,0,0,3-3V5.13a3,3,0,0,0-3-3Z"/><g id="Group_63" data-name="Group 63"><path id="Rectangle_78" data-name="Rectangle 78" class="cls-32" d="M119.38,33.35,122,31h0L130,40.13a1.19,1.19,0,0,1-.1,1.7h0l-.78.7a1.21,1.21,0,0,1-1.71-.1h0l-8.06-9.08Z"/><path id="Path_291" data-name="Path 291" class="cls-32" d="M116.57,16.67a9.26,9.26,0,1,0,9.26,9.26A9.25,9.25,0,0,0,116.57,16.67Zm0,15.57a6.31,6.31,0,1,1,6.31-6.31h0A6.31,6.31,0,0,1,116.57,32.24Z"/><path id="Path_292" data-name="Path 292" class="cls-23" d="M154.09,21.77H139.46a1.68,1.68,0,0,1-1.68-1.68h0a1.68,1.68,0,0,1,1.68-1.68h14.63a1.68,1.68,0,0,1,1.67,1.68h0a1.68,1.68,0,0,1-1.67,1.68Z"/><path id="Path_293" data-name="Path 293" class="cls-23" d="M154.09,30.49H139.46a1.68,1.68,0,0,1-1.68-1.68h0a1.68,1.68,0,0,1,1.68-1.67h14.63a1.67,1.67,0,0,1,1.67,1.67h0a1.68,1.68,0,0,1-1.67,1.68Z"/><path id="Path_294" data-name="Path 294" class="cls-23" d="M154.09,38.54H139.46a1.68,1.68,0,0,1-1.68-1.68h0a1.69,1.69,0,0,1,1.67-1.68h14.64a1.68,1.68,0,0,1,1.67,1.68h0a1.67,1.67,0,0,1-1.67,1.68Z"/><path id="Path_295" data-name="Path 295" class="cls-23" d="M135.87,61H113.32A1.92,1.92,0,0,1,111.41,59h0a1.91,1.91,0,0,1,1.91-1.91h22.55A1.91,1.91,0,0,1,137.78,59h0A1.92,1.92,0,0,1,135.87,61Z"/><path id="Path_296" data-name="Path 296" class="cls-23" d="M135.87,72.93H113.32A1.92,1.92,0,0,1,111.41,71h0a1.92,1.92,0,0,1,1.91-1.91h22.55A1.92,1.92,0,0,1,137.78,71h0a1.91,1.91,0,0,1-1.91,1.92Z"/><path id="Path_297" data-name="Path 297" class="cls-23" d="M135.87,84.9H113.32A1.91,1.91,0,0,1,111.41,83h0a1.92,1.92,0,0,1,1.91-1.91h22.55A1.92,1.92,0,0,1,137.78,83h0a1.91,1.91,0,0,1-1.91,1.91Z"/><path id="Path_298" data-name="Path 298" class="cls-23" d="M153.53,59A3.07,3.07,0,1,1,150.46,56h0A3.06,3.06,0,0,1,153.53,59Z"/><path id="Path_299" data-name="Path 299" class="cls-23" d="M153.53,71A3.07,3.07,0,1,1,150.46,68h0A3.06,3.06,0,0,1,153.53,71Z"/><path id="Path_300" data-name="Path 300" class="cls-23" d="M153.53,83a3.07,3.07,0,1,1-3.07-3.07h0A3.07,3.07,0,0,1,153.53,83Z"/></g></g><g id="Group_66" data-name="Group 66"><rect id="Rectangle_79" data-name="Rectangle 79" class="cls-22" x="321.57" y="15.91" width="113.93" height="80.11" rx="6.64"/><path id="Path_301" data-name="Path 301" class="cls-27" d="M432.34,93.14H331.7a7.46,7.46,0,0,1-7.45-7.45V18.87a7.46,7.46,0,0,1,7.45-7.45H432.34a7.46,7.46,0,0,1,7.45,7.45V85.69A7.46,7.46,0,0,1,432.34,93.14ZM331.7,13a5.84,5.84,0,0,0-5.84,5.84V85.69a5.84,5.84,0,0,0,5.84,5.84H432.34a5.85,5.85,0,0,0,5.84-5.84V18.87A5.85,5.85,0,0,0,432.34,13Z"/><g id="Group_65" data-name="Group 65"><path id="Path_302" data-name="Path 302" class="cls-33" d="M391.61,32.22H335.86a2.92,2.92,0,0,1-2.92-2.92h0a2.92,2.92,0,0,1,2.92-2.92h55.75a2.92,2.92,0,0,1,2.92,2.92h0a2.92,2.92,0,0,1-2.92,2.92Z"/><rect id="Rectangle_80" data-name="Rectangle 80" class="cls-28" x="332.94" y="42.48" width="61.59" height="32.61" rx="2.06"/><path id="Path_303" data-name="Path 303" class="cls-33" d="M421.2,32.22H404.7a2.92,2.92,0,0,1-2.92-2.92h0a2.92,2.92,0,0,1,2.92-2.92h16.5a2.92,2.92,0,0,1,2.92,2.92h0a2.92,2.92,0,0,1-2.92,2.92Z"/><path id="Path_304" data-name="Path 304" class="cls-33" d="M422.31,47.72H405a1.81,1.81,0,0,1-1.81-1.81h0A1.81,1.81,0,0,1,405,44.09h17.35a1.81,1.81,0,0,1,1.81,1.81h0A1.82,1.82,0,0,1,422.31,47.72Z"/><path id="Path_305" data-name="Path 305" class="cls-33" d="M422.31,55.9H405a1.81,1.81,0,0,1-1.81-1.81h0A1.81,1.81,0,0,1,405,52.28h17.35a1.81,1.81,0,0,1,1.81,1.81h0A1.81,1.81,0,0,1,422.31,55.9Z"/><path id="Path_306" data-name="Path 306" class="cls-33" d="M422.31,64.08H405a1.8,1.8,0,0,1-1.81-1.8h0A1.82,1.82,0,0,1,405,60.46h17.35a1.81,1.81,0,0,1,1.81,1.81h0A1.81,1.81,0,0,1,422.31,64.08Z"/><path id="Path_307" data-name="Path 307" class="cls-33" d="M422.31,72.27H405a1.81,1.81,0,0,1-1.81-1.81h0A1.81,1.81,0,0,1,405,68.65h17.35a1.81,1.81,0,0,1,1.81,1.81h0A1.81,1.81,0,0,1,422.31,72.27Z"/><path id="Path_308" data-name="Path 308" class="cls-33" d="M410.53,87.84H346.32a2.41,2.41,0,0,1-2.41-2.42h0A2.41,2.41,0,0,1,346.32,83h64.21A2.41,2.41,0,0,1,413,85.42h0a2.42,2.42,0,0,1-2.42,2.42Z"/></g></g><g id="Group_68" data-name="Group 68"><path id="Rectangle_81" data-name="Rectangle 81" class="cls-22" d="M10.58,109.57h95.27a5.37,5.37,0,0,1,5.37,5.37h0v57.7a5.36,5.36,0,0,1-5.36,5.37H10.58a5.37,5.37,0,0,1-5.37-5.37v-57.7a5.38,5.38,0,0,1,5.37-5.37Z"/><path id="Path_309" data-name="Path 309" class="cls-27" d="M102,174.85H6.67A6.17,6.17,0,0,1,.5,168.68V111a6.18,6.18,0,0,1,6.17-6.17H102a6.17,6.17,0,0,1,6.17,6.17v57.7A6.17,6.17,0,0,1,102,174.85ZM6.67,106.42A4.56,4.56,0,0,0,2.11,111v57.7a4.56,4.56,0,0,0,4.56,4.56H102a4.56,4.56,0,0,0,4.56-4.56V111a4.56,4.56,0,0,0-4.56-4.56Z"/><g id="Group_67" data-name="Group 67" class="cls-30"><rect id="Rectangle_82" data-name="Rectangle 82" class="cls-23" x="70.49" y="119.32" width="23.03" height="25.05"/><path id="Rectangle_85" data-name="Rectangle 85" class="cls-23" d="M20.78,155.47H39.7a1.41,1.41,0,0,1,1.41,1.4h0a1.41,1.41,0,0,1-1.41,1.41H20.78a1.41,1.41,0,0,1-1.41-1.41h0A1.41,1.41,0,0,1,20.78,155.47Z"/><path id="Rectangle_86" data-name="Rectangle 86" class="cls-23" d="M49.63,155.47H68.55a1.41,1.41,0,0,1,1.41,1.4h0a1.41,1.41,0,0,1-1.41,1.41H49.63a1.41,1.41,0,0,1-1.41-1.41h0A1.41,1.41,0,0,1,49.63,155.47Z"/><path id="Rectangle_89" data-name="Rectangle 89" class="cls-23" d="M34.63,145.47H53.55a1.41,1.41,0,0,1,1.41,1.4h0a1.41,1.41,0,0,1-1.41,1.41H34.63a1.41,1.41,0,0,1-1.41-1.41h0A1.41,1.41,0,0,1,34.63,145.47Z"/><path id="Rectangle_90" data-name="Rectangle 90" class="cls-23" d="M20.63,135.46H39.55A1.41,1.41,0,0,1,41,136.87h0a1.41,1.41,0,0,1-1.41,1.41H20.63a1.41,1.41,0,0,1-1.41-1.41h0A1.41,1.41,0,0,1,20.63,135.46Z"/><path id="Rectangle_87" data-name="Rectangle 87" class="cls-23" d="M76.73,155.47H95.65a1.41,1.41,0,0,1,1.41,1.4h0a1.41,1.41,0,0,1-1.41,1.41H76.73a1.41,1.41,0,0,1-1.41-1.41h0A1.41,1.41,0,0,1,76.73,155.47Z"/><path id="Path_313" data-name="Path 313" class="cls-23" d="M52.11,168.35H33.19a1.41,1.41,0,0,1-1.41-1.41h0a1.41,1.41,0,0,1,1.41-1.41H52.11a1.41,1.41,0,0,1,1.41,1.41h0A1.41,1.41,0,0,1,52.11,168.35Z"/><path id="Path_314" data-name="Path 314" class="cls-23" d="M79.22,168.35H60.3a1.41,1.41,0,0,1-1.41-1.41h0a1.41,1.41,0,0,1,1.41-1.41H79.22a1.41,1.41,0,0,1,1.41,1.41h0A1.41,1.41,0,0,1,79.22,168.35Z"/></g><g id="Banner" class="cls-34"><text class="cls-35" transform="translate(19.5 127.5)">Banner</text></g></g></g></g></svg>