<svg xmlns="http://www.w3.org/2000/svg" viewBox="0 0 275.2 49.5"><defs><style>.cls-1{fill:#fff;}</style></defs><g id="Layer_2" data-name="Layer 2"><g id="Layer_1-2" data-name="Layer 1"><path class="cls-1" d="M21.3,17.9V10.8Q21.3,0,11.4,0H0V49H11.4q9.9,0,9.9-10.8V31.1c-.2-3.2-1.2-5.4-3.2-6.6C20,23.2,21.1,21,21.3,17.9ZM12.8,38.2q0,2.4-2.1,2.4H8.5V28.7H9.8l1.7.2a2.2,2.2,0,0,1,1.3,2.2Zm0-20.3a2.2,2.2,0,0,1-1.3,2.2,5.4,5.4,0,0,1-1.7.2H8.5V8.4h2.2q2.1,0,2.1,2.4Z"/><path class="cls-1" d="M43.1,35l2.1,13.9H37.7l-1.2-7.8H31.7l-1.2,7.8H22.9L25,35.1l4.4-24.3h9.4ZM37.6,12.3h-7l-4.1,23L24.7,47.4h4.5l1.2-7.8h7.4l1.1,7.8h4.6L41.7,35.3ZM30.9,35.9,34.1,15l3.1,20.9Zm4.6-1.5-1.4-9.5-1.5,9.5Z"/><path class="cls-1" d="M48.8,10.8h7.3l4.4,16.3V10.9h7V48.9H60.2L56,33.3V48.9H48.8Zm1.5,36.6h4.3V21.9l6.7,25.5H66V12.3H61.9v26L55,12.3H50.3Z"/><path class="cls-1" d="M73,10.8h7.3l4.3,16.3V10.9h7.1V48.9H84.4L80.2,33.3V48.9H73Zm1.5,36.6h4.2V21.9l6.8,25.5h4.7V12.3H86.1v26l-7-26.1H74.5Z"/><path class="cls-1" d="M97.2,10.8h17v6.7h-9.6v9h8.3v6.7h-8.3v9h9.6v6.7h-17Zm1.5,36.6h14V43.7h-9.5v-12h8.2V28h-8.2V16h9.5V12.3h-14Z"/><path class="cls-1" d="M118.2,10.8h9.5q8.7,0,8.7,8.4v5.6c0,3.5-1.5,5.8-4.5,6.8l6.8,17.3h-8.1l-4.9-14.5V48.9h-7.5Zm1.5,36.6h4.5V31.5l2-.3,5.4,16.2h5l-6.7-16.7c3.3-1.1,5-3.1,5-5.9V19.2q0-6.9-7.2-6.9h-8ZM127.1,16c2.2,0,3.3,1.1,3.3,3.2v5.6a2.9,2.9,0,0,1-2.1,3l-2,.2h-2.1V16Zm-1.4,1.5v9h2.1a1.6,1.6,0,0,0,1.1-1.6V19.2c0-1.1-.6-1.7-1.8-1.7Z"/><path class="cls-1" d="M171.1,17.4V10.5c0-7-3.4-10.5-10.3-10.5s-10.3,3.5-10.3,10.5v4.3q0,6.8,6.6,11.4c3.8,2.8,5.8,5.1,5.8,7.1v5.2c0,1.5-.7,2.3-2.1,2.3s-2-.8-2-2.3v-7h-8.3v7c0,7,3.5,10.5,10.3,10.5s10.3-3.5,10.3-10.5V32.7c0-4.4-2.2-8.1-6.5-11.2s-5.8-5.1-5.8-6.9V10.5c0-1.6.6-2.3,2-2.3h0c1.4,0,2.1.7,2.1,2.3v6.9Z"/><path class="cls-1" d="M192.5,10.8v6.7h-5.6V48.9h-7.4V17.5h-5.6V10.8Zm-17.2,1.5V16h5.6V47.4h4.5V16h5.7V12.3Z"/><path class="cls-1" d="M214.8,41c0,5.7-3.1,8.5-9.3,8.5s-9.4-2.8-9.4-8.5V10.8h7.5V41c0,1.2.6,1.8,1.9,1.8a1.6,1.6,0,0,0,1.8-1.8V10.8h7.5Zm-1.5-28.7h-4.5V41q0,3.3-3.3,3.3c-2.3,0-3.4-1.1-3.4-3.3V12.3h-4.5V41c0,4.7,2.6,7,7.9,7s7.8-2.3,7.8-7Z"/><path class="cls-1" d="M220.1,10.8h10q8.7,0,8.7,8.4V40.4c0,5.7-2.9,8.5-8.7,8.5h-10Zm1.5,36.6h8.5c4.8,0,7.2-2.3,7.2-7V19.2q0-6.9-7.2-6.9h-8.5ZM229.5,16c2.2,0,3.3,1.1,3.3,3.2V40.4q0,3.3-3.3,3.3h-3.4V16Zm-1.9,1.5V42.2h1.9a1.6,1.6,0,0,0,1.8-1.8V19.2c0-1.1-.6-1.7-1.8-1.7Z"/><path class="cls-1" d="M244,10.8h7.4V48.9H244Zm1.5,36.6H250V12.3h-4.5Z"/><path class="cls-1" d="M275.2,41c0,5.7-3.1,8.5-9.3,8.5s-9.4-2.8-9.4-8.5V18.7c0-5.7,3.1-8.5,9.4-8.5s9.3,2.8,9.3,8.5Zm-1.5-22.3c0-4.7-2.6-7-7.8-7s-7.9,2.3-7.9,7V41c0,4.7,2.6,7,7.9,7s7.8-2.3,7.8-7ZM269.2,41q0,3.3-3.3,3.3c-2.3,0-3.4-1.1-3.4-3.3V18.7c0-2.2,1.1-3.3,3.4-3.3s3.3,1.1,3.3,3.3Zm-1.5-22.3a1.6,1.6,0,0,0-1.8-1.8c-1.3,0-1.9.6-1.9,1.8V41c0,1.2.6,1.8,1.9,1.8a1.6,1.6,0,0,0,1.8-1.8Z"/></g></g></svg>